<svg xmlns="http://www.w3.org/2000/svg" viewBox="0 0 1080 680" role="img" lang="en" aria-labelledby="archify-diagram-title archify-diagram-description" width="1080" height="680"><style>:root{--bg:#f4f9fc;--grid:#d4e5ee;--text:#102638;--text-muted:#587287;--text-dim:#8aa2b4;--lane-fill:rgba(232,243,248,.62);--lane-stroke:#a9c5d5;--arrow:#7b97aa;--arrow-emphasis:#0d9488;--mask:#fff;--frontend-fill:rgba(6,182,212,.09);--frontend-stroke:#0789a1;--backend-fill:rgba(5,150,105,.09);--backend-stroke:#087f69;--database-fill:rgba(124,58,237,.09);--database-stroke:#7254c7;--security-stroke:#c53a59;--messagebus-stroke:#c65f27;--external-fill:rgba(100,116,139,.1);--external-stroke:#607a8c;}@media(prefers-color-scheme:dark){:root{--bg:#030711;--grid:#15233a;--text:#f5fbff;--text-muted:#9eb0c7;--text-dim:#52667f;--lane-fill:rgba(9,22,40,.5);--lane-stroke:#2c4564;--arrow:#7890ad;--arrow-emphasis:#2dd4bf;--mask:#07101e;--frontend-fill:rgba(6,182,212,.14);--frontend-stroke:#67e8f9;--backend-fill:rgba(16,185,129,.14);--backend-stroke:#5eead4;--database-fill:rgba(139,92,246,.16);--database-stroke:#c4b5fd;--security-stroke:#fda4af;--messagebus-stroke:#fdba74;--external-fill:rgba(71,85,105,.24);--external-stroke:#a5b4c7;}}svg{font-family:ui-monospace,SFMono-Regular,Menlo,Consolas,monospace}.c-bg-rect{fill:var(--bg)}.c-grid{stroke:var(--grid);fill:none}.c-mask{fill:var(--mask);stroke:none}.c-lane{fill:var(--lane-fill);stroke:var(--lane-stroke);stroke-dasharray:6 6}.c-frontend{fill:var(--frontend-fill);stroke:var(--frontend-stroke)}.c-backend{fill:var(--backend-fill);stroke:var(--backend-stroke)}.c-database{fill:var(--database-fill);stroke:var(--database-stroke)}.c-external{fill:var(--external-fill);stroke:var(--external-stroke)}.a-default{stroke:var(--arrow);fill:none}.a-emphasis{stroke:var(--arrow-emphasis);fill:none}.a-security{stroke:var(--security-stroke);fill:none;stroke-dasharray:5 5}.a-dashed{stroke:var(--database-stroke);fill:none;stroke-dasharray:4 4}.m-default{fill:var(--arrow)}.m-emphasis{fill:var(--arrow-emphasis)}.m-security{fill:var(--security-stroke)}.m-dashed{fill:var(--database-stroke)}.t-primary{fill:var(--text)}.t-muted{fill:var(--text-muted)}.t-dim{fill:var(--text-dim)}.t-frontend{fill:var(--frontend-stroke)}.t-backend{fill:var(--backend-stroke)}.t-database{fill:var(--database-stroke)}.t-external{fill:var(--external-stroke)}.t-security{fill:var(--security-stroke)}.t-messagebus{fill:var(--messagebus-stroke)}.semantic-sigil{fill:none;stroke:currentColor;stroke-width:1.35;stroke-linecap:round;stroke-linejoin:round;opacity:.76}.semantic-sigil&gt;*{vector-effect:non-scaling-stroke}.semantic-sigil .sigil-fill{fill:currentColor;stroke:none}.s-frontend{color:var(--frontend-stroke)}.s-backend{color:var(--backend-stroke)}.s-database{color:var(--database-stroke)}.s-external{color:var(--external-stroke)}</style><rect width="100%" height="100%" class="c-bg-rect"/>
<title id="archify-diagram-title">CSRDM — From Tiny Routine to Posterior</title><desc id="archify-diagram-description">A human-facing story becomes generic model evidence and leaves as uncertainty — not human truth.</desc><defs><marker id="arrowhead" markerWidth="10" markerHeight="7" refX="9" refY="3.5" orient="auto"><polygon points="0 0, 10 3.5, 0 7" class="m-default"/></marker><marker id="arrowhead-emphasis" markerWidth="10" markerHeight="7" refX="9" refY="3.5" orient="auto"><polygon points="0 0, 10 3.5, 0 7" class="m-emphasis"/></marker><marker id="arrowhead-security" markerWidth="10" markerHeight="7" refX="9" refY="3.5" orient="auto"><polygon points="0 0, 10 3.5, 0 7" class="m-security"/></marker><marker id="arrowhead-dashed" markerWidth="10" markerHeight="7" refX="9" refY="3.5" orient="auto"><polygon points="0 0, 10 3.5, 0 7" class="m-dashed"/></marker><pattern id="grid" width="40" height="40" patternUnits="userSpaceOnUse"><path d="M 40 0 L 0 0 0 40" class="c-grid" stroke-width="0.5"/></pattern></defs><rect width="100%" height="100%" fill="url(#grid)"/><rect x="16" y="46" width="168" height="560" rx="10" class="c-lane" stroke-width="1"/><text x="100" y="68" class="t-dim" font-size="9" font-weight="600" text-anchor="middle">01 / Story</text><rect x="231" y="46" width="168" height="560" rx="10" class="c-lane" stroke-width="1"/><text x="315" y="68" class="t-dim" font-size="9" font-weight="600" text-anchor="middle">02 / Observe</text><rect x="446" y="46" width="168" height="560" rx="10" class="c-lane" stroke-width="1"/><text x="530" y="68" class="t-dim" font-size="9" font-weight="600" text-anchor="middle">03 / Model</text><rect x="661" y="46" width="168" height="560" rx="10" class="c-lane" stroke-width="1"/><text x="745" y="68" class="t-dim" font-size="9" font-weight="600" text-anchor="middle">04 / Infer</text><rect x="876" y="46" width="168" height="560" rx="10" class="c-lane" stroke-width="1"/><text x="960" y="68" class="t-dim" font-size="9" font-weight="600" text-anchor="middle">05 / Explain</text><path d="M 174 385 L 208 385 L 208 271 L 241 271" class="a-security" stroke-width="1.4" marker-end="url(#arrowhead-security)"/><path d="M 315 300 L 315 470" class="a-emphasis" stroke-width="1.8" marker-end="url(#arrowhead-emphasis)"/><path d="M 389 499 L 420 499 L 420 271 L 456 271" class="a-emphasis" stroke-width="1.8" marker-end="url(#arrowhead-emphasis)"/><path d="M 315 528 L 315 550 L 430 550 L 430 499 L 456 499" class="a-emphasis" stroke-width="1.8" marker-end="url(#arrowhead-emphasis)"/><path d="M 530 300 L 530 356" class="a-default" stroke-width="1.4" marker-end="url(#arrowhead)"/><path d="M 604 385 L 671 385" class="a-emphasis" stroke-width="1.8" marker-end="url(#arrowhead-emphasis)"/><path d="M 604 499 L 640 499 L 640 445 L 745 445 L 745 414" class="a-emphasis" stroke-width="1.8" marker-end="url(#arrowhead-emphasis)"/><path d="M 745 414 L 745 470" class="a-emphasis" stroke-width="1.8" marker-end="url(#arrowhead-emphasis)"/><path d="M 819 499 L 850 499 L 850 271 L 886 271" class="a-dashed" stroke-width="1.4" marker-end="url(#arrowhead-dashed)"/><path d="M 745 528 L 745 555 L 960 555 L 960 528" class="a-emphasis" stroke-width="1.8" marker-end="url(#arrowhead-emphasis)"/><g id="node-story"><rect x="26" y="356" width="148" height="58" rx="6" class="c-mask"/><rect x="26" y="356" width="148" height="58" rx="6" class="c-external" stroke-width="1.5"/><g aria-hidden="true" class="semantic-sigil s-external" transform="translate(32 362) scale(0.6875)"><rect x="2.5" y="5" width="8.5" height="8" rx="1.5"/><path d="M8 2.5h5.5V8M13.5 2.5 7.5 8.5"/></g><text x="100" y="377" class="t-primary" font-size="10" font-weight="600" text-anchor="middle">Cheng &amp; Linda</text><text x="100" y="393" class="t-muted" font-size="7" text-anchor="middle">synthetic teaching story</text><text x="100" y="403" class="t-external" font-size="7" text-anchor="middle">persona layer</text></g><g id="node-events"><rect x="241" y="242" width="148" height="58" rx="6" class="c-mask"/><rect x="241" y="242" width="148" height="58" rx="6" class="c-frontend" stroke-width="1.5"/><g aria-hidden="true" class="semantic-sigil s-frontend" transform="translate(247 248) scale(0.6875)"><rect x="2" y="3" width="12" height="10" rx="2"/><path d="M2 6.5h12"/><circle cx="4.1" cy="4.8" r=".7" class="sigil-fill"/><circle cx="6.3" cy="4.8" r=".7" class="sigil-fill"/></g><text x="315" y="263" class="t-primary" font-size="10" font-weight="600" text-anchor="middle">Observable Events</text><text x="315" y="279" class="t-muted" font-size="7" text-anchor="middle">+1? · 要 · pass · ☕ · 👍</text><text x="315" y="289" class="t-frontend" font-size="7" text-anchor="middle">observable only</text></g><g id="node-adapter"><rect x="241" y="470" width="148" height="58" rx="6" class="c-mask"/><rect x="241" y="470" width="148" height="58" rx="6" class="c-backend" stroke-width="1.5"/><g aria-hidden="true" class="semantic-sigil s-backend" transform="translate(247 476) scale(0.6875)"><path d="M6 3 3 8l3 5M10 3l3 5-3 5"/></g><text x="315" y="491" class="t-primary" font-size="10" font-weight="600" text-anchor="middle">Protocol Adapter</text><text x="315" y="507" class="t-muted" font-size="7" text-anchor="middle">tokens → generic fields</text><text x="315" y="517" class="t-backend" font-size="7" text-anchor="middle">persona ends here</text></g><g id="node-actions"><rect x="456" y="242" width="148" height="58" rx="6" class="c-mask"/><rect x="456" y="242" width="148" height="58" rx="6" class="c-backend" stroke-width="1.5"/><g aria-hidden="true" class="semantic-sigil s-backend" transform="translate(462 248) scale(0.6875)"><path d="M6 3 3 8l3 5M10 3l3 5-3 5"/></g><text x="530" y="263" class="t-primary" font-size="10" font-weight="600" text-anchor="middle">Observable Actions</text><text x="530" y="279" class="t-muted" font-size="7" text-anchor="middle">a_t · controlled input</text><text x="530" y="289" class="t-backend" font-size="7" text-anchor="middle">transition input</text></g><g id="node-core"><rect x="456" y="356" width="148" height="58" rx="6" class="c-mask"/><rect x="456" y="356" width="148" height="58" rx="6" class="c-backend" stroke-width="1.5"/><g aria-hidden="true" class="semantic-sigil s-backend" transform="translate(462 362) scale(0.6875)"><path d="M6 3 3 8l3 5M10 3l3 5-3 5"/></g><text x="530" y="377" class="t-primary" font-size="10" font-weight="600" text-anchor="middle">CSRDM Dynamics</text><text x="530" y="393" class="t-muted" font-size="7" text-anchor="middle">x_t=[P M V C E F] · m_t</text><text x="530" y="403" class="t-backend" font-size="7" text-anchor="middle">routine state</text></g><g id="node-observations"><rect x="456" y="470" width="148" height="58" rx="6" class="c-mask"/><rect x="456" y="470" width="148" height="58" rx="6" class="c-backend" stroke-width="1.5"/><g aria-hidden="true" class="semantic-sigil s-backend" transform="translate(462 476) scale(0.6875)"><path d="M6 3 3 8l3 5M10 3l3 5-3 5"/></g><text x="530" y="491" class="t-primary" font-size="10" font-weight="600" text-anchor="middle">Observation Clues</text><text x="530" y="507" class="t-muted" font-size="7" text-anchor="middle">z_t · observed clues</text><text x="530" y="517" class="t-backend" font-size="7" text-anchor="middle">not intention</text></g><g id="node-filter"><rect x="671" y="356" width="148" height="58" rx="6" class="c-mask"/><rect x="671" y="356" width="148" height="58" rx="6" class="c-backend" stroke-width="1.5"/><g aria-hidden="true" class="semantic-sigil s-backend" transform="translate(677 362) scale(0.6875)"><path d="M6 3 3 8l3 5M10 3l3 5-3 5"/></g><text x="745" y="377" class="t-primary" font-size="10" font-weight="600" text-anchor="middle">Particle Filter</text><text x="745" y="393" class="t-muted" font-size="7" text-anchor="middle">p(x_t, m_t | z_1:t)</text><text x="745" y="403" class="t-backend" font-size="7" text-anchor="middle">SMC inference</text></g><g id="node-posterior"><rect x="671" y="470" width="148" height="58" rx="6" class="c-mask"/><rect x="671" y="470" width="148" height="58" rx="6" class="c-database" stroke-width="1.5"/><g aria-hidden="true" class="semantic-sigil s-database" transform="translate(677 476) scale(0.6875)"><ellipse cx="8" cy="4" rx="5" ry="2"/><path d="M3 4v8c0 1.1 2.2 2 5 2s5-.9 5-2V4M3 8c0 1.1 2.2 2 5 2s5-.9 5-2"/></g><text x="745" y="491" class="t-primary" font-size="10" font-weight="600" text-anchor="middle">Posterior</text><text x="745" y="507" class="t-muted" font-size="7" text-anchor="middle">means · intervals · mode probs</text><text x="745" y="517" class="t-database" font-size="7" text-anchor="middle">estimate != fact</text></g><g id="node-diagnostics"><rect x="886" y="242" width="148" height="58" rx="6" class="c-mask"/><rect x="886" y="242" width="148" height="58" rx="6" class="c-backend" stroke-width="1.5"/><g aria-hidden="true" class="semantic-sigil s-backend" transform="translate(892 248) scale(0.6875)"><path d="M6 3 3 8l3 5M10 3l3 5-3 5"/></g><text x="960" y="263" class="t-primary" font-size="10" font-weight="600" text-anchor="middle">Diagnostics</text><text x="960" y="279" class="t-muted" font-size="7" text-anchor="middle">calibration · recovery</text><text x="960" y="289" class="t-backend" font-size="7" text-anchor="middle">challenge model</text></g><g id="node-public_api"><rect x="886" y="470" width="148" height="58" rx="6" class="c-mask"/><rect x="886" y="470" width="148" height="58" rx="6" class="c-frontend" stroke-width="1.5"/><g aria-hidden="true" class="semantic-sigil s-frontend" transform="translate(892 476) scale(0.6875)"><rect x="2" y="3" width="12" height="10" rx="2"/><path d="M2 6.5h12"/><circle cx="4.1" cy="4.8" r=".7" class="sigil-fill"/><circle cx="6.3" cy="4.8" r=".7" class="sigil-fill"/></g><text x="960" y="491" class="t-primary" font-size="10" font-weight="600" text-anchor="middle">Public API</text><text x="960" y="507" class="t-muted" font-size="7" text-anchor="middle">CSRDMResult · named views</text><text x="960" y="517" class="t-frontend" font-size="7" text-anchor="middle">stable door</text></g><g><rect x="189.75" y="314" width="36.5" height="16" rx="4" class="c-mask"/><text x="208" y="325" class="t-security" font-size="8" text-anchor="middle">story</text></g><g><rect x="334.3" y="374" width="41.4" height="16" rx="4" class="c-mask"/><text x="355" y="385" class="t-backend" font-size="8" text-anchor="middle">tokens</text></g><g><rect x="428" y="339" width="34" height="16" rx="4" class="c-mask"/><text x="445" y="350" class="t-backend" font-size="8" text-anchor="middle">a_t</text></g><g><rect x="368" y="564" width="34" height="16" rx="4" class="c-mask"/><text x="385" y="575" class="t-backend" font-size="8" text-anchor="middle">z_t</text></g><g><rect x="556.75" y="317" width="36.5" height="16" rx="4" class="c-mask"/><text x="575" y="328" class="t-muted" font-size="8" text-anchor="middle">drift</text></g><g><rect x="619.75" y="324" width="36.5" height="16" rx="4" class="c-mask"/><text x="638" y="335" class="t-backend" font-size="8" text-anchor="middle">prior</text></g><g><rect x="604.5" y="414" width="61" height="16" rx="4" class="c-mask"/><text x="635" y="425" class="t-backend" font-size="8" text-anchor="middle">likelihood</text></g><g><rect x="776.95" y="431" width="56.1" height="16" rx="4" class="c-mask"/><text x="805" y="442" class="t-backend" font-size="8" text-anchor="middle">posterior</text></g><g><rect x="826.85" y="359" width="46.3" height="16" rx="4" class="c-mask"/><text x="850" y="370" class="t-messagebus" font-size="8" text-anchor="middle">history</text></g><g><rect x="829.3" y="569" width="41.4" height="16" rx="4" class="c-mask"/><text x="850" y="580" class="t-backend" font-size="8" text-anchor="middle">result</text></g><g><text x="40" y="624" class="t-primary" font-size="12" font-weight="650">Legend</text><g><path d="M 40 641 L 74 641" class="a-emphasis" stroke-width="1.8" marker-end="url(#arrowhead-emphasis)"/><text x="83" y="644" class="t-muted" font-size="10" font-weight="500">primary inference path</text></g><g><path d="M 215 641 L 249 641" class="a-security" stroke-width="1.4" marker-end="url(#arrowhead-security)"/><text x="258" y="644" class="t-muted" font-size="10" font-weight="500">story / epistemic boundary</text></g><g><path d="M 409 641 L 443 641" class="a-dashed" stroke-width="1.4" marker-end="url(#arrowhead-dashed)"/><text x="452" y="644" class="t-muted" font-size="10" font-weight="500">diagnostic path</text></g><g><path d="M 549 641 L 583 641" class="a-default" stroke-width="1.4" marker-end="url(#arrowhead)"/><text x="592" y="644" class="t-muted" font-size="10" font-weight="500">ordinary model flow</text></g></g></svg>